<svg version="1.0" xmlns="http://www.w3.org/2000/svg" width="50" height="50" viewBox="0 0 500 500"><g fill="#fff"><path d="M152 485C53 442 0 359 0 248 0 99 100 0 250 0s250 99 250 248c0 112-54 195-155 238-44 18-150 18-193-1zm193-33c141-69 172-258 58-363-46-43-91-61-153-61C54 28-46 259 89 403c65 70 172 91 256 49z"/><path d="M210 325c0-48-2-55-20-55-16 0-20-7-20-30s4-30 20-30c14 0 20-7 20-23 0-41 27-67 71-67 35 0 39 3 39 25 0 20-5 25-25 25-18 0-25 5-25 20s7 20 25 20c21 0 25 5 25 30s-4 30-25 30c-24 0-25 3-25 55 0 54 0 55-30 55s-30-1-30-55z"/></g></svg>