<svg version="1.0" xmlns="http://www.w3.org/2000/svg" width="50" height="50" viewBox="0 0 500 500"><g fill="#fff"><path d="M152 485C53 442 0 359 0 248 0 99 100 0 250 0s250 99 250 248c0 112-54 195-155 238-44 18-150 18-193-1zm193-33c141-69 172-258 58-363-46-43-91-61-153-61C54 28-46 259 89 403c65 70 172 91 256 49z"/><path d="M132 368c-8-8-12-49-12-118 0-139 1-140 136-140 65 0 104 4 112 12 17 17 17 229 0 246-16 16-220 16-236 0zm216-80c2-36-1-58-8-58-5 0-10 11-10 24 0 23-49 76-70 76-41 0-101-64-85-90 3-6-1-10-9-10-13 0-16 12-16 53 0 30 3 57 7 61s48 5 98 4l90-3 3-57zm-68-12c19-23 8-61-18-64-45-7-72 46-34 67 24 14 38 13 52-3zm70-106c0-13-7-20-20-20s-20 7-20 20 7 20 20 20 20-7 20-20z"/></g></svg>