<svg version="1.0" xmlns="http://www.w3.org/2000/svg" width="50" height="50" viewBox="0 0 500 500"><g fill="#fff"><path d="M152 485C53 442 0 359 0 248 0 99 100 0 250 0s250 99 250 248c0 112-54 195-155 238-44 18-150 18-193-1zm193-33c141-69 172-258 58-363-46-43-91-61-153-61C54 28-46 259 89 403c65 70 172 91 256 49z"/><path d="M205 328c4-29 10-75 14-103 5-45 9-50 31-50 27 0 30 14 17 68-7 24-5 27 17 27 27 0 36-16 36-64 0-40-15-56-55-56-47 0-69 29-61 80 5 30 3 40-7 40-23 0-37-23-37-61 0-30 7-43 35-68 72-63 175-25 175 64 0 60-39 107-84 103-27-3-33 1-48 35-26 56-42 48-33-15z"/></g></svg>